<?xml version="1.0" encoding="utf-8"?>
<!-- Generator: Adobe Illustrator 23.0.6, SVG Export Plug-In . SVG Version: 6.00 Build 0)  -->
<svg version="1.1" xmlns="http://www.w3.org/2000/svg" xmlns:xlink="http://www.w3.org/1999/xlink" x="0px" y="0px"
	 viewBox="0 0 260 260" style="enable-background:new 0 0 260 260;" xml:space="preserve">
<style type="text/css">
	.st0{fill:#FFFFFF;}
</style>
<g id="Layer_1">
</g>
<g id="Lager_1">
	<path class="st0" d="M113.3,258.5h-3.7v-87.2c-3.4,0.5-6.7,1-10.1,1.3c-24.4,2.5-47.5-0.1-65.1-7.3c-20-8.2-31.7-21.6-34-38.8
		c-2.5-19,5.6-35.6,23.5-48c19.6-13.7,50.6-21.7,84.9-22c0.3,0,0.6,0,0.8,0V1.5h3.7c19,0,41,1.1,60.7,9.1
		c25.8,10.5,40,30.2,42.1,58.6c0.4,5.1,0.3,10.1-0.2,14.9c11.7,7.6,21.3,16.4,28.5,26.4c10.3,14.3,15.6,30.8,15.6,48.8
		c0,20.6-5.8,38.4-17.3,53c-9.7,12.3-23.5,22.4-40.9,29.9C168,256.9,128.7,258.5,113.3,258.5z M117,170v81.1
		c16.8-0.3,51.8-2.5,81.8-15.6c35.7-15.5,53.8-41.1,53.8-76.2c0-19.6-7-46.1-38-67.2c-4.1,19.3-15.4,36.4-33.6,50.3
		C164.1,155.4,141.4,165.1,117,170z M109.7,63.9c-0.3,0-0.5,0-0.8,0C76,64.2,46.5,71.7,28.1,84.6C12.5,95.5,5.6,109.3,7.7,125.6
		c2.4,18.2,17.3,28,29.5,32.9c16.5,6.7,38.4,9.1,61.6,6.8c3.6-0.4,7.3-0.9,10.9-1.4V63.9z M117,64v98.5
		c22.8-4.8,43.8-13.8,59.6-25.9c12.9-9.9,27.4-25.8,31.4-48.8c-2-1.2-4.2-2.4-6.4-3.6C178.3,72.1,147.8,64.9,117,64z M117,56.6
		c32.3,0.8,63.2,8.2,87.9,21.1c1.3,0.7,2.6,1.4,3.9,2.1c0.2-3.3,0.2-6.6-0.1-10.2c-1-13.7-5.2-25.2-12.3-34.2
		c-6.1-7.7-14.6-13.7-25.2-18.1C154,10.4,134.4,9,117,8.9V56.6z"/>
</g>
</svg>
