<?xml version="1.0" encoding="utf-8"?>
<!-- Generator: Adobe Illustrator 22.0.1, SVG Export Plug-In . SVG Version: 6.00 Build 0)  -->
<svg version="1.1" id="Lager_1" xmlns="http://www.w3.org/2000/svg" xmlns:xlink="http://www.w3.org/1999/xlink" x="0px" y="0px"
	 viewBox="0 0 180 58" style="enable-background:new 0 0 180 58;" xml:space="preserve">
<style type="text/css">
	.st0{fill:#4B3D34;}
</style>
<g id="Symbols">
	<g id="behrer-logo">
		<g id="Logotyp-BP_RGB_Svart">
			<path id="Fill-1" class="st0" d="M9.6,24.8c4,0,6-2.5,6-5.8c0-3.5-2.5-6.1-6.6-6.1H3.4v11.9H9.6z M3.4,10h7.1c2.1,0,4-1,4-3.4
				c0-2.7-2.2-3.5-5-3.5H3.4V10z M9.2,27.8H0V0.2h9.6c5.6,0,8.4,2.3,8.4,6.3c0,2.1-1.3,4-3.5,5c2.6,1.1,4.5,4,4.5,7.6
				C19,24.5,15.6,27.8,9.2,27.8L9.2,27.8z"/>
			<polyline id="Fill-2" class="st0" points="49.3,27.8 31.1,27.8 31.1,0.2 49.2,0.2 49.2,3.2 34.5,3.2 34.5,9.8 48.2,9.8 
				48.2,12.9 34.5,12.9 34.5,24.7 49.3,24.7 49.3,27.8 			"/>
			<polyline id="Fill-3" class="st0" points="80,12.9 65.5,12.9 65.5,27.8 62,27.8 62,0.2 65.5,0.2 65.5,9.8 80,9.8 80,0.2 
				83.4,0.2 83.4,27.8 80,27.8 80,12.9 			"/>
			<polyline id="Fill-4" class="st0" points="146.7,27.8 128.5,27.8 128.5,0.2 146.6,0.2 146.6,3.2 131.9,3.2 131.9,9.8 145.6,9.8 
				145.6,12.9 131.9,12.9 131.9,24.7 146.7,24.7 146.7,27.8 			"/>
			<path id="Fill-5" class="st0" d="M100.6,10V3.1h6.2c2.7,0,5,0.8,5,3.5c0,2.4-2.1,3.4-4.7,3.4H100.6z M108.4,12.7
				c5.1-0.6,6.7-3.1,6.7-6.2c0-4-2.8-6.3-8.4-6.3h-9.6v27.6h3.4V12.9h4l8.8,14.9h4.1L108.4,12.7L108.4,12.7z"/>
			<path id="Fill-6" class="st0" d="M162.9,10V3.1h6.2c2.7,0,5,0.8,5,3.5c0,2.4-2.1,3.4-4.7,3.4H162.9z M170.7,12.7
				c5.1-0.6,6.7-3.1,6.7-6.2c0-4-2.8-6.3-8.4-6.3h-9.6v27.6h3.4V12.9h4l8.8,14.9h4.1L170.7,12.7L170.7,12.7z"/>
			<path id="Fill-7" class="st0" d="M124.4,49.1v-3.4h3c1.3,0,2.4,0.4,2.4,1.7c0,1.2-1,1.7-2.3,1.7H124.4z M128.2,50.4
				c2.5-0.3,3.3-1.5,3.3-3c0-1.9-1.4-3.1-4.1-3.1h-4.7v13.5h1.7v-7.3h2l4.3,7.3h2L128.2,50.4L128.2,50.4z"/>
			<path id="Fill-8" class="st0" d="M61,49.1v-3.4h3c1.3,0,2.4,0.4,2.4,1.7c0,1.2-1,1.7-2.3,1.7H61z M64.9,50.4
				c2.5-0.3,3.3-1.5,3.3-3c0-1.9-1.4-3.1-4.1-3.1h-4.7v13.5H61v-7.3h2l4.3,7.3h2L64.9,50.4L64.9,50.4z"/>
			<path id="Fill-9" class="st0" d="M46.4,51.2h3.7l-1.9-5.4h0L46.4,51.2z M50.6,52.7h-4.7l-1.8,5.1h-1.7l4.9-13.5h1.9l4.9,13.5
				h-1.8L50.6,52.7L50.6,52.7z"/>
			<polyline id="Fill-10" class="st0" points="79.1,45.8 79.1,57.8 77.5,57.8 77.5,45.8 73.3,45.8 73.3,44.3 83.4,44.3 83.4,45.8 
				79.1,45.8 			"/>
			<polyline id="Fill-11" class="st0" points="90.7,47.2 90.7,57.8 89.1,57.8 89.1,44.3 90.7,44.3 97.9,54.9 97.9,44.3 99.5,44.3 
				99.5,57.8 97.9,57.8 90.7,47.2 			"/>
			<polyline id="Fill-12" class="st0" points="115.8,57.8 106.9,57.8 106.9,44.3 115.7,44.3 115.7,45.8 108.6,45.8 108.6,49 
				115.2,49 115.2,50.5 108.6,50.5 108.6,56.3 115.8,56.3 115.8,57.8 			"/>
			<path id="Fill-13" class="st0" d="M32.8,49v-3.3H36c1.5,0,2.2,0.6,2.2,1.7c0,1-0.7,1.6-2.2,1.6H32.8z M36.3,50.5
				c2.6,0,3.6-1.6,3.6-3.1c0-1.9-1.4-3.1-4.1-3.1h-4.7v13.5h1.7v-7.3H36.3L36.3,50.5z"/>
			<path id="Fill-14" class="st0" d="M137.2,53.1l1.7-0.1c0.2,2.4,1.6,3.5,3.5,3.5c1.5,0,3-1.1,3-2.5c0-1.4-1.2-2.2-3-2.8l-1.1-0.3
				c-2.4-0.7-3.2-1.8-3.2-3.4c0-2.1,1.7-3.4,4.2-3.4c2.4,0,4.3,1.3,4.3,3.7v0.1L145,48v-0.1c-0.1-2-1.3-2.4-2.7-2.4
				c-1.4,0-2.5,0.6-2.5,1.8c0,0.9,0.4,1.4,2.4,2l1.1,0.3c2.6,0.8,3.8,2.1,3.8,4.1c0,2.3-2.1,4.1-4.7,4.1
				C139.9,57.9,137.5,56.8,137.2,53.1"/>
		</g>
	</g>
</g>
</svg>
